<?xml version="1.0" standalone="no"?>
<!DOCTYPE svg PUBLIC "-//W3C//DTD SVG 20010904//EN"
 "http://www.w3.org/TR/2001/REC-SVG-20010904/DTD/svg10.dtd">
<svg version="1.0" xmlns="http://www.w3.org/2000/svg"
 width="512.000000pt" height="512.000000pt" viewBox="0 0 512.000000 512.000000"
 preserveAspectRatio="xMidYMid meet">

<g transform="translate(0.000000,512.000000) scale(0.100000,-0.100000)"
fill="#000000" stroke="none">
<path d="M0 2560 l0 -2560 2560 0 2560 0 0 2560 0 2560 -2560 0 -2560 0 0
-2560z m4585 2441 c48 -22 79 -54 100 -103 13 -31 15 -96 15 -405 0 -238 -4
-382 -11 -408 -14 -51 -73 -110 -124 -124 -26 -7 -163 -11 -380 -11 l-340 0
-92 -92 c-51 -51 -93 -86 -93 -78 0 8 4 41 10 74 15 90 8 96 -103 96 -79 0
-101 4 -143 25 -28 14 -59 40 -74 62 l-25 37 -3 405 -3 406 29 46 c19 30 45
53 73 67 44 22 50 22 584 22 504 0 543 -2 580 -19z m-2179 -657 c106 -50 105
-198 -2 -249 -93 -44 -203 37 -190 139 6 49 32 86 77 108 42 22 71 23 115 2z
m34 -604 c44 -22 84 -77 95 -127 l7 -33 -191 0 c-186 0 -191 1 -191 20 0 26
32 90 56 112 58 52 154 64 224 28z m810 -267 c192 -66 337 -218 385 -408 22
-88 22 -691 -1 -779 -47 -180 -184 -328 -370 -399 l-59 -22 -870 0 -870 0 -67
23 c-185 64 -330 221 -373 404 -22 92 -22 688 0 773 57 222 248 395 470 425
33 4 427 7 875 6 812 -1 815 -2 880 -23z m240 -1654 c50 -165 55 -205 54 -419
0 -222 -11 -297 -70 -461 -189 -532 -667 -868 -1189 -835 -432 27 -796 276
-999 684 -109 218 -163 514 -137 747 12 102 54 298 71 324 7 12 20 9 77 -17
137 -63 115 -62 1034 -62 799 0 839 1 913 20 42 11 105 35 139 54 34 18 67 34
74 35 7 0 22 -31 33 -70z m-2408 -178 l-4 -38 -64 -6 c-78 -6 -143 -41 -182
-99 -23 -36 -27 -54 -30 -130 l-4 -88 -39 0 -39 0 0 78 c0 98 20 157 72 217
61 69 139 103 238 104 l56 1 -4 -39z m2829 12 c63 -28 120 -82 149 -140 20
-38 26 -67 28 -140 l4 -93 -41 0 -41 0 0 78 c0 67 -4 84 -30 129 -21 36 -44
61 -77 80 -44 26 -58 28 -165 32 -101 3 -118 5 -118 20 0 9 -3 27 -7 40 l-6
23 129 -4 c104 -3 138 -8 175 -25z"/>
<path d="M3531 4602 c-47 -25 -73 -76 -68 -130 10 -98 121 -149 205 -94 78 51
64 191 -23 228 -46 19 -73 18 -114 -4z m93 -78 c24 -24 20 -61 -9 -80 -23 -15
-27 -15 -50 0 -32 21 -33 59 -3 80 28 20 43 20 62 0z"/>
<path d="M3954 4606 c-47 -21 -74 -61 -74 -113 0 -132 139 -187 229 -90 52 57
31 161 -40 199 -40 21 -72 22 -115 4z m84 -82 c30 -21 29 -59 -3 -80 -23 -15
-27 -15 -50 0 -42 28 -28 94 20 96 6 0 21 -7 33 -16z"/>
<path d="M4360 4598 c-74 -50 -89 -132 -34 -197 95 -114 283 4 217 136 -37 76
-121 103 -183 61z m101 -79 c14 -14 18 -27 13 -42 -13 -44 -54 -57 -83 -28
-26 26 -26 46 -1 71 25 25 45 25 71 -1z"/>
<path d="M1471 3265 c-66 -21 -145 -80 -185 -138 -62 -90 -68 -138 -64 -480
l3 -302 33 -67 c40 -81 110 -148 190 -180 l57 -23 825 0 825 0 57 23 c80 32
150 99 190 180 l33 67 3 302 c3 250 1 313 -12 365 -30 118 -125 219 -239 253
-72 21 -1647 21 -1716 0z m1696 -80 c66 -20 134 -80 164 -147 24 -52 24 -58
24 -363 0 -296 -1 -312 -22 -357 -11 -25 -40 -64 -63 -86 -77 -76 -36 -73
-956 -70 -787 3 -821 4 -858 22 -53 27 -104 80 -130 135 -20 44 -21 61 -21
356 0 305 0 311 24 363 29 65 98 127 160 146 71 22 1605 23 1678 1z"/>
<path d="M1760 2882 c-56 -30 -80 -88 -80 -197 0 -49 5 -106 10 -126 33 -120
210 -138 264 -26 12 26 16 64 16 150 0 102 -2 118 -23 148 -43 64 -121 85
-187 51z"/>
<path d="M2799 2879 c-60 -35 -69 -61 -69 -199 0 -90 4 -129 15 -151 48 -92
202 -91 250 2 13 25 16 56 13 159 -3 121 -4 130 -28 155 -54 58 -118 70 -181
34z"/>
<path d="M1960 1392 c-19 -9 -45 -32 -57 -51 -22 -33 -23 -42 -23 -261 0 -219
1 -228 23 -261 45 -68 51 -69 445 -69 390 0 400 1 443 61 24 34 24 37 24 269
0 232 0 235 -24 269 -43 60 -53 61 -443 61 -316 0 -357 -2 -388 -18z m755 -87
c25 -24 25 -25 25 -225 0 -200 0 -201 -25 -225 l-24 -25 -346 0 c-332 0 -346
1 -365 20 -19 19 -20 33 -20 230 0 197 1 211 20 230 19 19 33 20 365 20 l346
0 24 -25z"/>
</g>
</svg>
